<svg xmlns="http://www.w3.org/2000/svg" width="1920" height="55" viewBox="0 0 1920 55">
  <path id="Union_13" data-name="Union 13" d="M1819-1742l50.5-55,50.5,55Zm-102,0,50.5-55,50.5,55Zm-101,0,50.5-55,50.5,55Zm-101,0H1414l50.5-55,50.5,55,50.5-55,50.5,55Zm-202,0,50.5-55,50.5,55Zm-101,0,50.5-55,50.5,55Zm-101,0,50.5-55,50.5,55Zm-101,0,50.5-55,50.5,55Zm-101,0,50.5-55,50.5,55Zm-101,0,50.5-55,50.5,55Zm-101,0,50.5-55,50.5,55Zm-101,0H505l50.5-55,50.5,55,50.5-55,50.5,55Zm-202,0,50.5-55,50.5,55Zm-101,0,50.5-55,50.5,55Zm-101,0,50.5-55,50.5,55Zm-101,0,50.5-55,50.5,55ZM0-1742l50.5-55,50.5,55Z" transform="translate(0 1796.999)" fill="#f7fafc"/>
</svg>
